<?xml version="1.0" encoding="UTF-8"?>
<svg xmlns="http://www.w3.org/2000/svg" id="Layer_1" data-name="Layer 1" viewBox="0 0 24 24">
  <path d="M22.283,10.099c-.016-.368-.036-.753-.058-1.155-.201-3.623-1.072-6.334-1.109-6.448-.11-.339-.393-.594-.742-.668-.052-.011-.495-.105-1.225-.225V6.357c0,.552-.448,1-1,1s-1-.448-1-1V1.319c-.553-.066-1.16-.129-1.809-.181V5.395c0,.552-.448,1-1,1s-1-.448-1-1V1.023c-.437-.015-.885-.023-1.34-.023-.157,0-.313,.001-.469,.003v3.43c0,.552-.448,1-1,1s-1-.448-1-1V1.077c-3.291,.2-5.776,.723-5.904,.75-.349,.074-.632,.329-.742,.668-.037,.114-.909,2.825-1.109,6.448-.022,.402-.042,.786-.058,1.155,1.462,.281,5.629,.995,10.282,.995s8.818-.714,10.282-.995Z"/>
  <path d="M12,13.093c-4.529,0-8.526-.632-10.301-.961,.07,1.696,.429,2.929,1.492,3.826,1.297,1.093,2.889,1.632,5.646,1.864l-.214,.88c-.254,1.043-.019,2.125,.645,2.97,.663,.844,1.659,1.328,2.732,1.328s2.069-.484,2.732-1.328c.664-.844,.898-1.927,.645-2.97l-.214-.88c2.762-.232,4.354-.772,5.647-1.865,1.062-.898,1.422-2.131,1.492-3.825-1.776,.329-5.78,.961-10.301,.961Z"/>
</svg>
